<svg width="138" height="49" viewBox="0 0 138 49" fill="none" xmlns="http://www.w3.org/2000/svg">
<path d="M24.9716 42V47H0.428711V1.54282H6.343V42H24.9716Z" fill="#F2D9BC"/>
<path d="M48.5767 48.3714C43.4148 48.3714 39.4719 46.2 36.7481 41.8571C34.0243 37.5143 32.6624 31.6476 32.6624 24.2571C32.6624 16.9047 34.0243 11.0571 36.7481 6.71425C39.4719 2.35235 43.4148 0.171396 48.5767 0.171396C53.7386 0.171396 57.6719 2.35235 60.3767 6.71425C63.1005 11.0571 64.4624 16.9047 64.4624 24.2571C64.4624 31.6476 63.1005 37.5143 60.3767 41.8571C57.6719 46.2 53.7386 48.3714 48.5767 48.3714ZM48.5767 43.8C51.4148 43.8 53.7862 42.1904 55.691 38.9714C57.5957 35.7333 58.5481 30.8285 58.5481 24.2571C58.5481 17.7047 57.5957 12.8095 55.691 9.57139C53.7862 6.3333 51.4148 4.71425 48.5767 4.71425C45.7196 4.71425 43.3386 6.3333 41.4338 9.57139C39.5291 12.8095 38.5767 17.7047 38.5767 24.2571C38.5767 30.8285 39.5291 35.7333 41.4338 38.9714C43.3386 42.1904 45.7196 43.8 48.5767 43.8Z" fill="#F2D9BC"/>
<path d="M99.039 46.9714C95.8199 47.9047 92.8771 48.3714 90.2104 48.3714C86.4199 48.3714 83.039 47.4381 80.0675 45.5714C77.1152 43.6857 74.8009 40.8571 73.1247 37.0857C71.4485 33.2952 70.6104 29.019 70.6104 24.2571C70.6104 19.5523 71.4295 15.3238 73.0675 11.5714C74.7056 7.81901 77.0199 4.98092 80.0104 3.05711C83.0009 1.11425 86.2866 0.142822 89.8675 0.142822C92.5533 0.142822 95.6009 0.780918 99.0104 2.05711V7.45711C95.8675 5.62854 92.7342 4.71425 89.6104 4.71425C87.2675 4.71425 85.1247 5.52377 83.1818 7.14282C81.239 8.74282 79.6771 11.0952 78.4961 14.2C77.3152 17.2857 76.7247 20.6571 76.7247 24.3143C76.7247 29.2476 77.8485 33.7333 80.0961 37.7714C82.3437 41.8095 85.8866 43.8285 90.7247 43.8285C91.3533 43.8285 92.1437 43.7809 93.0961 43.6857V29.0285H88.5818V24.4857H99.039V46.9714Z" fill="#F2D9BC"/>
<path d="M121.73 48.3714C116.568 48.3714 112.625 46.2 109.901 41.8571C107.177 37.5143 105.816 31.6476 105.816 24.2571C105.816 16.9047 107.177 11.0571 109.901 6.71425C112.625 2.35235 116.568 0.171396 121.73 0.171396C126.892 0.171396 130.825 2.35235 133.53 6.71425C136.254 11.0571 137.616 16.9047 137.616 24.2571C137.616 31.6476 136.254 37.5143 133.53 41.8571C130.825 46.2 126.892 48.3714 121.73 48.3714ZM121.73 43.8C124.568 43.8 126.939 42.1904 128.844 38.9714C130.749 35.7333 131.701 30.8285 131.701 24.2571C131.701 17.7047 130.749 12.8095 128.844 9.57139C126.939 6.3333 124.568 4.71425 121.73 4.71425C118.873 4.71425 116.492 6.3333 114.587 9.57139C112.682 12.8095 111.73 17.7047 111.73 24.2571C111.73 30.8285 112.682 35.7333 114.587 38.9714C116.492 42.1904 118.873 43.8 121.73 43.8Z" fill="#F2D9BC"/>
</svg>
