<svg width="172" height="39" viewBox="0 0 172 39" fill="none" xmlns="http://www.w3.org/2000/svg">
<path d="M0.56543 1.58398H9.5083V34.2671H28.0923V38H0.56543V1.58398Z" fill="#F2D9BC"/>
<path d="M54.1818 38.8057C51.2456 38.8057 48.5064 38.3312 45.9641 37.3823C43.4217 36.4334 41.2196 35.1086 39.3576 33.4077C37.4956 31.689 36.0275 29.6569 34.9533 27.3115C33.897 24.9482 33.3688 22.3612 33.3688 19.5503C33.3688 16.7931 33.897 14.2687 34.9533 11.9771C36.0275 9.66748 37.4956 7.68913 39.3576 6.04199C41.2196 4.39486 43.4217 3.11475 45.9641 2.20166C48.5064 1.28857 51.2456 0.832031 54.1818 0.832031C57.118 0.832031 59.8483 1.29753 62.3728 2.22852C64.9151 3.1416 67.1172 4.42171 68.9792 6.06885C70.8591 7.71598 72.3361 9.68538 73.4104 11.9771C74.4846 14.2508 75.0217 16.7484 75.0217 19.4697C75.0217 21.4033 74.78 23.2295 74.2966 24.9482C73.8132 26.6491 73.1239 28.2157 72.2287 29.6479C71.3335 31.0802 70.2593 32.3604 69.0061 33.4883C67.7528 34.6162 66.3474 35.5741 64.7897 36.3618C63.25 37.1496 61.585 37.7493 59.7946 38.1611C58.0043 38.5908 56.1333 38.8057 54.1818 38.8057ZM54.1818 35.7441C55.9543 35.7441 57.5209 35.3413 58.8815 34.5356C60.2422 33.7121 61.3791 32.5841 62.2922 31.1519C63.2053 29.7196 63.8946 28.0187 64.3601 26.0493C64.8435 24.062 65.0852 21.8957 65.0852 19.5503C65.0852 17.2407 64.8435 15.1281 64.3601 13.2124C63.8946 11.2967 63.2053 9.64958 62.2922 8.271C61.3791 6.89242 60.2422 5.8182 58.8815 5.04834C57.5209 4.27848 55.9543 3.89355 54.1818 3.89355C52.3915 3.89355 50.8159 4.27848 49.4553 5.04834C48.0946 5.8182 46.9577 6.89242 46.0446 8.271C45.1315 9.64958 44.4423 11.2967 43.9768 13.2124C43.5113 15.1281 43.2785 17.2407 43.2785 19.5503C43.2785 21.8957 43.5113 24.062 43.9768 26.0493C44.4423 28.0187 45.1315 29.7196 46.0446 31.1519C46.9577 32.5841 48.0946 33.7121 49.4553 34.5356C50.8159 35.3413 52.3915 35.7441 54.1818 35.7441Z" fill="#F2D9BC"/>
<path d="M105.865 20.2485H120.984V34.2671C119.821 34.8937 118.657 35.4666 117.493 35.9858C116.329 36.505 115.085 36.9526 113.76 37.3286C112.435 37.7046 110.985 38 109.41 38.2148C107.852 38.4297 106.097 38.5371 104.146 38.5371C101.013 38.5371 98.1213 38.0985 95.4716 37.2212C92.8397 36.3439 90.557 35.1086 88.6234 33.5151C86.7077 31.9217 85.2128 29.9971 84.1386 27.7412C83.0644 25.4854 82.5272 22.9878 82.5272 20.2485C82.5272 17.3481 83.0644 14.6984 84.1386 12.2993C85.2128 9.90023 86.7077 7.84131 88.6234 6.12256C90.5391 4.40381 92.8129 3.06999 95.4447 2.12109C98.0945 1.1722 100.986 0.697754 104.119 0.697754C105.963 0.697754 107.736 0.948405 109.436 1.44971C111.155 1.95101 112.74 2.61344 114.19 3.43701C115.64 4.26058 116.947 5.20947 118.111 6.28369C119.274 7.34001 120.232 8.43213 120.984 9.56006L117.305 12.917C116.535 11.8249 115.73 10.8133 114.888 9.88232C114.047 8.95133 113.151 8.14567 112.203 7.46533C111.254 6.76709 110.233 6.22103 109.141 5.82715C108.067 5.43327 106.912 5.23633 105.677 5.23633C103.797 5.23633 102.042 5.5765 100.413 6.25684C98.8017 6.93717 97.3962 7.92188 96.1967 9.21094C95.015 10.4821 94.084 12.0487 93.4037 13.9106C92.7413 15.7726 92.4101 17.8853 92.4101 20.2485C92.4101 22.6118 92.7681 24.6976 93.4843 26.5059C94.2004 28.3141 95.1762 29.8359 96.4115 31.0713C97.6469 32.3066 99.0881 33.2466 100.735 33.8911C102.4 34.5177 104.182 34.8311 106.079 34.8311C107.207 34.8311 108.273 34.6878 109.275 34.4014C110.278 34.097 111.2 33.6405 112.041 33.0317V23.3638H105.865V20.2485Z" fill="#F2D9BC"/>
<path d="M150.189 38.8057C147.253 38.8057 144.514 38.3312 141.971 37.3823C139.429 36.4334 137.227 35.1086 135.365 33.4077C133.503 31.689 132.035 29.6569 130.961 27.3115C129.904 24.9482 129.376 22.3612 129.376 19.5503C129.376 16.7931 129.904 14.2687 130.961 11.9771C132.035 9.66748 133.503 7.68913 135.365 6.04199C137.227 4.39486 139.429 3.11475 141.971 2.20166C144.514 1.28857 147.253 0.832031 150.189 0.832031C153.125 0.832031 155.856 1.29753 158.38 2.22852C160.922 3.1416 163.124 4.42171 164.986 6.06885C166.866 7.71598 168.343 9.68538 169.418 11.9771C170.492 14.2508 171.029 16.7484 171.029 19.4697C171.029 21.4033 170.787 23.2295 170.304 24.9482C169.82 26.6491 169.131 28.2157 168.236 29.6479C167.341 31.0802 166.267 32.3604 165.013 33.4883C163.76 34.6162 162.355 35.5741 160.797 36.3618C159.257 37.1496 157.592 37.7493 155.802 38.1611C154.011 38.5908 152.141 38.8057 150.189 38.8057ZM150.189 35.7441C151.962 35.7441 153.528 35.3413 154.889 34.5356C156.249 33.7121 157.386 32.5841 158.299 31.1519C159.212 29.7196 159.902 28.0187 160.367 26.0493C160.851 24.062 161.092 21.8957 161.092 19.5503C161.092 17.2407 160.851 15.1281 160.367 13.2124C159.902 11.2967 159.212 9.64958 158.299 8.271C157.386 6.89242 156.249 5.8182 154.889 5.04834C153.528 4.27848 151.962 3.89355 150.189 3.89355C148.399 3.89355 146.823 4.27848 145.462 5.04834C144.102 5.8182 142.965 6.89242 142.052 8.271C141.139 9.64958 140.449 11.2967 139.984 13.2124C139.518 15.1281 139.286 17.2407 139.286 19.5503C139.286 21.8957 139.518 24.062 139.984 26.0493C140.449 28.0187 141.139 29.7196 142.052 31.1519C142.965 32.5841 144.102 33.7121 145.462 34.5356C146.823 35.3413 148.399 35.7441 150.189 35.7441Z" fill="#F2D9BC"/>
</svg>
