<svg width="154" height="42" viewBox="0 0 154 42" fill="none" xmlns="http://www.w3.org/2000/svg">
<path d="M29.1351 40.9999H0.340088V38.3349L5.93009 36.9049V5.24993L0.340088 3.81993V1.15493H19.1901V3.81993L13.5351 5.24993V36.7749H24.2601L25.8851 30.7949H29.1351V40.9999Z" fill="#F2D9BC"/>
<path d="M50.0006 0.24493C54.6373 0.24493 58.3639 1.1766 61.1806 3.03993C63.9973 4.90326 66.0339 7.39493 67.2906 10.5149C68.5473 13.6349 69.1756 17.0799 69.1756 20.8499C69.1756 24.6199 68.5256 28.0866 67.2256 31.2499C65.9689 34.3699 63.9323 36.8833 61.1156 38.7899C58.2989 40.6533 54.5939 41.5849 50.0006 41.5849C45.4506 41.5849 41.7456 40.6533 38.8856 38.7899C36.0256 36.8833 33.9239 34.3699 32.5806 31.2499C31.2806 28.0866 30.6306 24.6199 30.6306 20.8499C30.6306 17.0799 31.2806 13.6349 32.5806 10.5149C33.8806 7.39493 35.9389 4.90326 38.7556 3.03993C41.6156 1.1766 45.3639 0.24493 50.0006 0.24493ZM61.0506 20.8499C61.0506 19.1599 60.8989 17.3616 60.5956 15.4549C60.2923 13.5049 59.7289 11.6849 58.9056 9.99493C58.1256 8.30493 56.9773 6.93993 55.4606 5.89993C53.9873 4.8166 52.0373 4.27493 49.6106 4.27493C47.2706 4.27493 45.3856 4.8166 43.9556 5.89993C42.5689 6.93993 41.4856 8.30493 40.7056 9.99493C39.9689 11.6849 39.4706 13.5049 39.2106 15.4549C38.9506 17.3616 38.8206 19.1599 38.8206 20.8499C38.8206 22.6266 38.9506 24.4899 39.2106 26.4399C39.5139 28.3899 40.0773 30.2099 40.9006 31.8999C41.7239 33.5466 42.8723 34.8899 44.3456 35.9299C45.8623 36.9699 47.8339 37.4899 50.2606 37.4899C52.6006 37.4899 54.4856 36.9699 55.9156 35.9299C57.3456 34.8466 58.4289 33.4599 59.1656 31.7699C59.9023 30.0799 60.4006 28.2816 60.6606 26.3749C60.9206 24.4249 61.0506 22.5833 61.0506 20.8499Z" fill="#F2D9BC"/>
<path d="M101.229 5.05493C99.7559 4.53493 97.7192 4.27493 95.1192 4.27493C92.4759 4.27493 90.3092 4.79493 88.6192 5.83493C86.9292 6.87493 85.6292 8.21826 84.7192 9.86493C83.8092 11.5116 83.1809 13.3099 82.8342 15.2599C82.4876 17.1666 82.3142 19.0083 82.3142 20.7849C82.3142 22.8216 82.4876 24.8366 82.8342 26.8299C83.2242 28.7799 83.8526 30.5783 84.7192 32.2249C85.6292 33.8283 86.8426 35.1066 88.3592 36.0599C89.8759 37.0133 91.8042 37.4899 94.1442 37.4899C94.9242 37.4899 95.7476 37.4466 96.6142 37.3599C97.4809 37.2733 98.3476 37.0566 99.2142 36.7099V26.3099L93.6892 24.9449V22.2149H110.979V25.0099L106.819 26.2449V38.9199C105.303 39.7866 103.439 40.4583 101.229 40.9349C99.0626 41.4116 96.7876 41.6499 94.4042 41.6499C90.6342 41.6499 87.4709 41.1083 84.9142 40.0249C82.3576 38.8983 80.2776 37.3816 78.6742 35.4749C77.1142 33.5249 75.9876 31.2933 75.2942 28.7799C74.6009 26.2666 74.2542 23.6016 74.2542 20.7849C74.2542 17.9683 74.6226 15.3249 75.3592 12.8549C76.0959 10.3416 77.2876 8.15326 78.9342 6.28993C80.5809 4.38326 82.7259 2.88826 85.3692 1.80493C88.0126 0.721596 91.2409 0.179932 95.0542 0.179932C97.0042 0.179932 99.1059 0.353265 101.359 0.699932C103.613 1.0466 105.454 1.5016 106.884 2.06493L106.104 11.4249H102.854L101.229 5.05493Z" fill="#F2D9BC"/>
<path d="M134.074 0.24493C138.711 0.24493 142.437 1.1766 145.254 3.03993C148.071 4.90326 150.107 7.39493 151.364 10.5149C152.621 13.6349 153.249 17.0799 153.249 20.8499C153.249 24.6199 152.599 28.0866 151.299 31.2499C150.042 34.3699 148.006 36.8833 145.189 38.7899C142.372 40.6533 138.667 41.5849 134.074 41.5849C129.524 41.5849 125.819 40.6533 122.959 38.7899C120.099 36.8833 117.997 34.3699 116.654 31.2499C115.354 28.0866 114.704 24.6199 114.704 20.8499C114.704 17.0799 115.354 13.6349 116.654 10.5149C117.954 7.39493 120.012 4.90326 122.829 3.03993C125.689 1.1766 129.437 0.24493 134.074 0.24493ZM145.124 20.8499C145.124 19.1599 144.972 17.3616 144.669 15.4549C144.366 13.5049 143.802 11.6849 142.979 9.99493C142.199 8.30493 141.051 6.93993 139.534 5.89993C138.061 4.8166 136.111 4.27493 133.684 4.27493C131.344 4.27493 129.459 4.8166 128.029 5.89993C126.642 6.93993 125.559 8.30493 124.779 9.99493C124.042 11.6849 123.544 13.5049 123.284 15.4549C123.024 17.3616 122.894 19.1599 122.894 20.8499C122.894 22.6266 123.024 24.4899 123.284 26.4399C123.587 28.3899 124.151 30.2099 124.974 31.8999C125.797 33.5466 126.946 34.8899 128.419 35.9299C129.936 36.9699 131.907 37.4899 134.334 37.4899C136.674 37.4899 138.559 36.9699 139.989 35.9299C141.419 34.8466 142.502 33.4599 143.239 31.7699C143.976 30.0799 144.474 28.2816 144.734 26.3749C144.994 24.4249 145.124 22.5833 145.124 20.8499Z" fill="#F2D9BC"/>
</svg>
