<svg width="150" height="58" viewBox="0 0 150 58" fill="none" xmlns="http://www.w3.org/2000/svg">
<path d="M74.672 22.0001V6.49006H84.836V8.75606H77.466V12.9801H84.396V15.2461H77.466V22.0001H74.672ZM91.5821 22.1761C90.4821 22.1761 89.5141 21.9487 88.6781 21.4941C87.8568 21.0394 87.2188 20.3867 86.7641 19.5361C86.3094 18.6854 86.0821 17.6954 86.0821 16.5661C86.0821 15.4367 86.3094 14.4541 86.7641 13.6181C87.2188 12.7674 87.8568 12.1147 88.6781 11.6601C89.5141 11.2054 90.4821 10.9781 91.5821 10.9781C92.6821 10.9781 93.6428 11.2054 94.4641 11.6601C95.3001 12.1147 95.9381 12.7674 96.3781 13.6181C96.8328 14.4541 97.0601 15.4367 97.0601 16.5661C97.0601 17.6954 96.8328 18.6854 96.3781 19.5361C95.9381 20.3867 95.3001 21.0394 94.4641 21.4941C93.6428 21.9487 92.6821 22.1761 91.5821 22.1761ZM91.5601 20.0421C92.4548 20.0421 93.1368 19.7487 93.6061 19.1621C94.0754 18.5754 94.3101 17.7101 94.3101 16.5661C94.3101 15.4367 94.0754 14.5787 93.6061 13.9921C93.1368 13.3907 92.4621 13.0901 91.5821 13.0901C90.7021 13.0901 90.0201 13.3907 89.5361 13.9921C89.0668 14.5787 88.8321 15.4367 88.8321 16.5661C88.8321 17.7101 89.0668 18.5754 89.5361 19.1621C90.0054 19.7487 90.6801 20.0421 91.5601 20.0421ZM104.236 22.1761C103.136 22.1761 102.168 21.9487 101.332 21.4941C100.511 21.0394 99.8731 20.3867 99.4184 19.5361C98.9637 18.6854 98.7364 17.6954 98.7364 16.5661C98.7364 15.4367 98.9637 14.4541 99.4184 13.6181C99.8731 12.7674 100.511 12.1147 101.332 11.6601C102.168 11.2054 103.136 10.9781 104.236 10.9781C105.336 10.9781 106.297 11.2054 107.118 11.6601C107.954 12.1147 108.592 12.7674 109.032 13.6181C109.487 14.4541 109.714 15.4367 109.714 16.5661C109.714 17.6954 109.487 18.6854 109.032 19.5361C108.592 20.3867 107.954 21.0394 107.118 21.4941C106.297 21.9487 105.336 22.1761 104.236 22.1761ZM104.214 20.0421C105.109 20.0421 105.791 19.7487 106.26 19.1621C106.73 18.5754 106.964 17.7101 106.964 16.5661C106.964 15.4367 106.73 14.5787 106.26 13.9921C105.791 13.3907 105.116 13.0901 104.236 13.0901C103.356 13.0901 102.674 13.3907 102.19 13.9921C101.721 14.5787 101.486 15.4367 101.486 16.5661C101.486 17.7101 101.721 18.5754 102.19 19.1621C102.66 19.7487 103.334 20.0421 104.214 20.0421ZM119.069 13.2661L117.463 13.4201C115.644 13.6107 114.735 14.5347 114.735 16.1921V22.0001H111.985V11.2421H114.603V13.1341C115.16 11.8434 116.311 11.1394 118.057 11.0221L118.893 10.9561L119.069 13.2661ZM120.407 22.0001V11.2421H123.157V22.0001H120.407ZM120.253 6.24806H123.289V8.95406H120.253V6.24806ZM130.613 10.9781C132.123 10.9781 133.245 11.3447 133.979 12.0781C134.712 12.8114 135.079 13.9407 135.079 15.4661V22.0001H132.461V20.3501C132.211 20.9221 131.815 21.3694 131.273 21.6921C130.745 22.0147 130.129 22.1761 129.425 22.1761C128.706 22.1761 128.053 22.0294 127.466 21.7361C126.88 21.4427 126.418 21.0394 126.081 20.5261C125.743 20.0127 125.575 19.4407 125.575 18.8101C125.575 18.0181 125.773 17.3947 126.169 16.9401C126.579 16.4854 127.239 16.1554 128.149 15.9501C129.058 15.7447 130.312 15.6421 131.911 15.6421H132.461V15.1361C132.461 14.4027 132.299 13.8747 131.977 13.5521C131.669 13.2294 131.148 13.0681 130.415 13.0681C129.843 13.0681 129.241 13.1707 128.611 13.3761C127.995 13.5667 127.386 13.8381 126.785 14.1901L126.014 12.2981C126.616 11.9167 127.342 11.6014 128.193 11.3521C129.043 11.1027 129.85 10.9781 130.613 10.9781ZM129.975 20.1961C130.708 20.1961 131.302 19.9541 131.757 19.4701C132.226 18.9714 132.461 18.3334 132.461 17.5561V17.0941H132.065C131.082 17.0941 130.319 17.1381 129.777 17.2261C129.234 17.3141 128.845 17.4681 128.611 17.6881C128.376 17.9081 128.259 18.2087 128.259 18.5901C128.259 19.0594 128.42 19.4481 128.743 19.7561C129.065 20.0494 129.476 20.1961 129.975 20.1961ZM144.121 10.9781C145.412 10.9781 146.373 11.3447 147.003 12.0781C147.634 12.8114 147.949 13.9187 147.949 15.4001V22.0001H145.199V15.5541C145.199 14.7181 145.038 14.1094 144.715 13.7281C144.407 13.3467 143.916 13.1561 143.241 13.1561C142.449 13.1561 141.811 13.4054 141.327 13.9041C140.858 14.4027 140.623 15.0701 140.623 15.9061V22.0001H137.873V11.2421H140.557V12.8481C140.924 12.2467 141.415 11.7847 142.031 11.4621C142.647 11.1394 143.344 10.9781 144.121 10.9781ZM87.674 51.0001H84.594L81.932 46.0501C81.6827 45.5807 81.3747 45.2507 81.008 45.0601C80.6413 44.8694 80.1793 44.7741 79.622 44.7741H77.466V51.0001H74.672V35.4901H81.536C83.296 35.4901 84.6307 35.8861 85.54 36.6781C86.464 37.4554 86.926 38.5847 86.926 40.0661C86.926 41.2541 86.5887 42.2367 85.914 43.0141C85.254 43.7767 84.3153 44.2754 83.098 44.5101C83.9193 44.7301 84.5793 45.3094 85.078 46.2481L87.674 51.0001ZM81.14 42.5961C82.2107 42.5961 82.9953 42.3981 83.494 42.0021C83.9927 41.5914 84.242 40.9681 84.242 40.1321C84.242 39.2814 83.9927 38.6654 83.494 38.2841C82.9953 37.8881 82.2107 37.6901 81.14 37.6901H77.444V42.5961H81.14ZM99.1649 46.1161H91.8389C91.9269 47.1134 92.2275 47.8541 92.7409 48.3381C93.2542 48.8221 93.9875 49.0641 94.9409 49.0641C96.1289 49.0641 97.2142 48.6827 98.1969 47.9201L98.9889 49.8121C98.4902 50.2227 97.8595 50.5527 97.0969 50.8021C96.3489 51.0514 95.5935 51.1761 94.8309 51.1761C93.0709 51.1761 91.6775 50.6774 90.6509 49.6801C89.6389 48.6827 89.1329 47.3187 89.1329 45.5881C89.1329 44.4881 89.3529 43.5127 89.7929 42.6621C90.2329 41.8114 90.8489 41.1514 91.6409 40.6821C92.4475 40.2127 93.3569 39.9781 94.3689 39.9781C95.8502 39.9781 97.0162 40.4547 97.8669 41.4081C98.7322 42.3614 99.1649 43.6741 99.1649 45.3461V46.1161ZM94.4349 41.9141C93.7015 41.9141 93.1075 42.1487 92.6529 42.6181C92.2129 43.0874 91.9415 43.7621 91.8389 44.6421H96.8109C96.7815 43.7474 96.5615 43.0727 96.1509 42.6181C95.7402 42.1487 95.1682 41.9141 94.4349 41.9141ZM105.374 51.1761C104.421 51.1761 103.541 51.0587 102.734 50.8241C101.942 50.5894 101.268 50.2521 100.71 49.8121L101.48 47.8981C102.624 48.7341 103.937 49.1521 105.418 49.1521C106.049 49.1521 106.526 49.0494 106.848 48.8441C107.186 48.6387 107.354 48.3454 107.354 47.9641C107.354 47.6414 107.237 47.3921 107.002 47.2161C106.782 47.0401 106.379 46.8787 105.792 46.7321L104.032 46.3361C103.035 46.1161 102.294 45.7567 101.81 45.2581C101.326 44.7594 101.084 44.1141 101.084 43.3221C101.084 42.6621 101.268 42.0827 101.634 41.5841C102.016 41.0707 102.536 40.6747 103.196 40.3961C103.871 40.1174 104.648 39.9781 105.528 39.9781C106.291 39.9781 107.024 40.0954 107.728 40.3301C108.447 40.5647 109.078 40.8947 109.62 41.3201L108.85 43.1901C107.736 42.3834 106.621 41.9801 105.506 41.9801C104.905 41.9801 104.436 42.0901 104.098 42.3101C103.761 42.5301 103.592 42.8381 103.592 43.2341C103.592 43.5274 103.695 43.7694 103.9 43.9601C104.12 44.1507 104.465 44.2974 104.934 44.4001L106.76 44.8181C107.831 45.0527 108.616 45.4267 109.114 45.9401C109.613 46.4387 109.862 47.0987 109.862 47.9201C109.862 48.9174 109.459 49.7094 108.652 50.2961C107.846 50.8827 106.753 51.1761 105.374 51.1761ZM117.485 49.1081C117.807 49.1081 118.145 49.0861 118.497 49.0421L118.365 51.0881C117.925 51.1321 117.521 51.1541 117.155 51.1541C115.644 51.1541 114.529 50.8094 113.811 50.1201C113.092 49.4161 112.733 48.3747 112.733 46.9961V42.3101H110.665V40.2421H112.733V37.0301H115.483V40.2421H118.321V42.3101H115.483V46.9521C115.483 48.3894 116.15 49.1081 117.485 49.1081ZM125.012 51.1761C123.912 51.1761 122.944 50.9487 122.108 50.4941C121.286 50.0394 120.648 49.3867 120.194 48.5361C119.739 47.6854 119.512 46.6954 119.512 45.5661C119.512 44.4367 119.739 43.4541 120.194 42.6181C120.648 41.7674 121.286 41.1147 122.108 40.6601C122.944 40.2054 123.912 39.9781 125.012 39.9781C126.112 39.9781 127.072 40.2054 127.894 40.6601C128.73 41.1147 129.368 41.7674 129.808 42.6181C130.262 43.4541 130.49 44.4367 130.49 45.5661C130.49 46.6954 130.262 47.6854 129.808 48.5361C129.368 49.3867 128.73 50.0394 127.894 50.4941C127.072 50.9487 126.112 51.1761 125.012 51.1761ZM124.99 49.0421C125.884 49.0421 126.566 48.7487 127.036 48.1621C127.505 47.5754 127.74 46.7101 127.74 45.5661C127.74 44.4367 127.505 43.5787 127.036 42.9921C126.566 42.3907 125.892 42.0901 125.012 42.0901C124.132 42.0901 123.45 42.3907 122.966 42.9921C122.496 43.5787 122.262 44.4367 122.262 45.5661C122.262 46.7101 122.496 47.5754 122.966 48.1621C123.435 48.7487 124.11 49.0421 124.99 49.0421Z" fill="#383E44"/>
<path fill-rule="evenodd" clip-rule="evenodd" d="M37.5 55.0001C47.7173 55.0001 56 43.5833 56 29.5001C56 15.4168 47.7173 4.00006 37.5 4.00006C30.2388 4.00006 23.9547 9.7662 20.9263 18.1577C20.1322 18.0537 19.3224 18.0001 18.5 18.0001C8.28273 18.0001 0 26.2828 0 36.5001C0 46.7173 8.28273 55.0001 18.5 55.0001C22.2698 55.0001 25.7762 53.8725 28.7004 51.9363C31.3173 53.8904 34.3147 55.0001 37.5 55.0001ZM19 29.5001C19 39.1927 22.9233 47.6223 28.7004 51.9363C33.7017 48.6247 37 42.9476 37 36.5001C37 27.1052 29.997 19.346 20.9263 18.1577C19.6933 21.574 19 25.4254 19 29.5001Z" fill="#7BAE26"/>
</svg>
