<svg width="135" height="32" viewBox="0 0 135 32" fill="none" xmlns="http://www.w3.org/2000/svg">
<path d="M23.6001 32H0.850098V0.150024H6.0501V27.45H18.4001V22.9H23.6001V32Z" fill="#F2D9BC"/>
<path d="M57.7378 27.45C57.7378 28.7067 57.2828 29.79 56.3728 30.7C55.5061 31.5667 54.4445 32 53.1878 32H34.9878C33.7311 32 32.6478 31.5667 31.7378 30.7C30.8711 29.79 30.4378 28.7067 30.4378 27.45V4.70003C30.4378 3.44336 30.8711 2.38169 31.7378 1.51503C32.6478 0.605026 33.7311 0.150024 34.9878 0.150024H53.1878C54.4445 0.150024 55.5061 0.605026 56.3728 1.51503C57.2828 2.38169 57.7378 3.44336 57.7378 4.70003V27.45ZM52.5378 27.45V4.70003H35.6378V27.45H52.5378Z" fill="#F2D9BC"/>
<path d="M96.7276 32H91.5276V28.1L87.6276 32H73.9776C72.7643 32 71.7026 31.545 70.7926 30.635C69.8826 29.725 69.4276 28.6634 69.4276 27.45V4.70003C69.4276 3.48669 69.8826 2.42503 70.7926 1.51503C71.7026 0.605026 72.7643 0.150024 73.9776 0.150024H96.7276V4.70003H74.6276V27.45H91.5276V18.35H83.0776L87.6276 13.8H96.7276V32Z" fill="#F2D9BC"/>
<path d="M134.448 27.45C134.448 28.7067 133.993 29.79 133.083 30.7C132.216 31.5667 131.155 32 129.898 32H111.698C110.441 32 109.358 31.5667 108.448 30.7C107.581 29.79 107.148 28.7067 107.148 27.45V4.70003C107.148 3.44336 107.581 2.38169 108.448 1.51503C109.358 0.605026 110.441 0.150024 111.698 0.150024H129.898C131.155 0.150024 132.216 0.605026 133.083 1.51503C133.993 2.38169 134.448 3.44336 134.448 4.70003V27.45ZM129.248 27.45V4.70003H112.348V27.45H129.248Z" fill="#F2D9BC"/>
</svg>
